<?xml version="1.0" encoding="UTF-8" standalone="no"?>
<svg
   xmlns:dc="http://purl.org/dc/elements/1.1/"
   xmlns:cc="http://creativecommons.org/ns#"
   xmlns:rdf="http://www.w3.org/1999/02/22-rdf-syntax-ns#"
   xmlns:svg="http://www.w3.org/2000/svg"
   xmlns="http://www.w3.org/2000/svg"
   xmlns:sodipodi="http://sodipodi.sourceforge.net/DTD/sodipodi-0.dtd"
   xmlns:inkscape="http://www.inkscape.org/namespaces/inkscape"
   width="63.079002"
   height="66.862"
   id="svg2"
   version="1.1"
   inkscape:version="0.91 r13725"
   sodipodi:docname="lets_encrypt_padlock.svg">
  <metadata
     id="metadata37">
    <rdf:RDF>
      <cc:Work
         rdf:about="">
        <dc:format>image/svg+xml</dc:format>
        <dc:type
           rdf:resource="http://purl.org/dc/dcmitype/StillImage" />
        <dc:title></dc:title>
      </cc:Work>
    </rdf:RDF>
  </metadata>
  <defs
     id="defs35" />
  <sodipodi:namedview
     pagecolor="#ffffff"
     bordercolor="#666666"
     borderopacity="1"
     objecttolerance="10"
     gridtolerance="10"
     guidetolerance="10"
     inkscape:pageopacity="0"
     inkscape:pageshadow="2"
     inkscape:window-width="1079"
     inkscape:window-height="700"
     id="namedview33"
     showgrid="false"
     inkscape:zoom="0.91445428"
     inkscape:cx="23.128064"
     inkscape:cy="27.968002"
     inkscape:window-x="0"
     inkscape:window-y="23"
     inkscape:window-maximized="0"
     inkscape:current-layer="svg2"
     fit-margin-top="0"
     fit-margin-left="0"
     fit-margin-right="0"
     fit-margin-bottom="0" />
  <g
     id="g4"
     transform="translate(-0.930001,-1.606)">
    <title
       id="title6">Layer 1</title>
    <g
       id="svg_16">
      <path
         id="svg_17"
         d="m 46.488998,37.568001 -8.039997,0 0,-4.128002 c 0,-3.296997 -2.683002,-5.979 -5.98,-5.979 -3.297001,0 -5.979,2.683002 -5.979,5.979 l 0,4.128002 -8.040001,0 0,-4.128002 c 0,-7.73 6.288998,-14.019999 14.02,-14.019999 7.731002,0 14.02,6.289 14.02,14.019999 l 0,4.128002 -0.001,0 z"
         inkscape:connector-curvature="0"
         style="fill:#f9a11d" />
    </g>
    <path
       id="svg_18"
       d="m 49.731998,37.568001 -34.524998,0 c -1.474001,0 -2.68,1.205997 -2.68,2.68 l 0,25.540001 c 0,1.473999 1.205999,2.68 2.68,2.68 l 34.524998,0 c 1.474003,0 2.68,-1.206001 2.68,-2.68 l 0,-25.540001 c 0,-1.474003 -1.205997,-2.68 -2.68,-2.68 z m -15.512997,16.769001 0,3.460995 c 0,0.966003 -0.784,1.749001 -1.749001,1.749001 -0.965001,0 -1.749001,-0.783997 -1.749001,-1.749001 l 0,-3.459995 c -1.076,-0.611 -1.803001,-1.764 -1.803001,-3.09 0,-1.962002 1.591,-3.552002 3.552002,-3.552002 1.961998,0 3.551998,1.591 3.551998,3.552002 0,1.325001 -0.727001,2.478001 -1.802998,3.089001 z"
       inkscape:connector-curvature="0"
       style="fill:#2c3c69" />
    <path
       id="svg_19"
       d="m 11.707001,33.759998 -8.331,0 c -1.351001,0 -2.446,-1.094997 -2.446,-2.445999 0,-1.351002 1.094999,-2.445999 2.446,-2.445999 l 8.331,0 c 1.351,0 2.445999,1.095001 2.445999,2.445999 0,1.350998 -1.096001,2.445999 -2.445999,2.445999 z"
       inkscape:connector-curvature="0"
       style="fill:#f9a11d" />
    <path
       id="svg_20"
       d="m 17.575001,20.655001 c -0.546001,0 -1.097,-0.182001 -1.552,-0.557001 l -6.59,-5.418999 C 8.39,13.820999 8.239001,12.280001 9.098,11.236 9.956,10.193001 11.497,10.042 12.541001,10.9 l 6.59,5.419001 c 1.042999,0.858 1.194,2.399 0.334999,3.442999 -0.483,0.589001 -1.184,0.893002 -1.890999,0.893002 z"
       inkscape:connector-curvature="0"
       style="fill:#f9a11d" />
    <path
       id="svg_21"
       d="m 32.469002,14.895 c -1.351002,0 -2.446003,-1.095001 -2.446003,-2.446001 l 0,-8.396999 c 0,-1.351 1.095001,-2.446 2.446003,-2.446 1.351002,0 2.445999,1.095 2.445999,2.446 l 0,8.396999 c 0,1.351 -1.095001,2.446001 -2.445999,2.446001 z"
       inkscape:connector-curvature="0"
       style="fill:#f9a11d" />
    <g
       id="svg_22">
      <g
         id="svg_23">
        <path
           id="svg_24"
           d="M 47.362999,20.655001 C 46.655998,20.655001 45.956001,20.351 45.472,19.761999 44.613998,18.719 44.764,17.177 45.806999,16.319 l 6.59,-5.419001 c 1.044003,-0.858 2.585003,-0.706999 3.442997,0.336 0.858002,1.042999 0.708,2.584999 -0.334999,3.443001 l -6.589996,5.418999 C 48.459999,20.472999 47.91,20.655 47.362999,20.655 Z"
           inkscape:connector-curvature="0"
           style="fill:#f9a11d" />
      </g>
    </g>
    <path
       id="svg_25"
       d="m 61.563004,33.759998 -8.410004,0 c -1.351002,0 -2.445999,-1.094997 -2.445999,-2.445999 0,-1.351002 1.094997,-2.445999 2.445999,-2.445999 l 8.410004,0 c 1.350998,0 2.445999,1.095001 2.445999,2.445999 0,1.350998 -1.095001,2.445999 -2.445999,2.445999 z"
       inkscape:connector-curvature="0"
       style="fill:#f9a11d" />
  </g>
</svg>
