<?xml version="1.0" encoding="UTF-8" standalone="no"?>
<svg
   id="Layer_1"
   data-name="Layer 1"
   width="1980.3278"
   height="1980.3278"
   viewBox="0 0 1980.3278 1980.3278"
   version="1.1"
   xmlns:xlink="http://www.w3.org/1999/xlink"
   xmlns="http://www.w3.org/2000/svg"
   xmlns:svg="http://www.w3.org/2000/svg">
  <defs
     id="defs1210">
    <linearGradient
       id="linearGradient11474">
      <stop
         style="stop-color:#0073a1;stop-opacity:1;"
         offset="0"
         id="stop11470" />
      <stop
         style="stop-color:#003555;stop-opacity:1;"
         offset="0.99999994"
         id="stop11472" />
    </linearGradient>
    <style
       id="style1208">
      .cls-1 {
        fill: #000;
        stroke-width: 0px;
      }

      .cls-2 {
        fill: none;
        stroke: #000;
        stroke-miterlimit: 10;
        stroke-width: 1.5px;
      }
    </style>
    <linearGradient
       xlink:href="#linearGradient11474"
       id="linearGradient13796"
       x1="244.82254"
       y1="-272.52347"
       x2="1115.3405"
       y2="-272.52347"
       gradientUnits="userSpaceOnUse"
       gradientTransform="matrix(1.1334914,2.6005278,-2.6005278,1.1334914,-512.61366,-441.09346)" />
  </defs>
  <g
     id="g13918"
     transform="matrix(0.72030957,0,0,0.72030957,301.50373,257.50309)">
    <circle
       style="fill:#ffffff;fill-opacity:1;stroke-width:0.667"
       id="path13894"
       cx="956.0614"
       cy="1017.1471"
       r="1374.6365" />
    <path
       id="path9733"
       style="fill:url(#linearGradient13796);fill-opacity:1;stroke-width:1.89217"
       d="m 988.38914,-215.99155 a 1234.7513,1234.7513 0 0 0 -514.7936,102.6631 1234.7513,1234.7513 0 0 0 -638.5411,1625.26445 1234.7513,1234.7513 0 0 0 1356.59146,717.6886 c 24.0405,-76.6469 43.7514,-160.6882 43.7514,-252.334 0,-13.0228 -0.3604,-26.0483 -1.0855,-39.4332 0,0 44.1319,-75.2418 78.8638,-173.2777 43.0487,-121.1868 20.2585,-254.6763 -54.2626,-360.3097 -4.3411,-5.7868 -8.6819,-12.2982 -13.3847,-18.8095 -438.80666,0 -655.86016,-397.92845 -710.85036,-639.94135 -22.7902,-99.4823 -41.2843,-109.3685 -103.4049,-109.3685 -114.9217,0 -197.8762,-47.6482 -197.8762,-47.6482 -105.5125,48.348 -152.7553,28.6476 -138.5926,-21.8263 -45.9388,-5.0628 -44.9893,-57.2097 -17.0185,-105.136 35.0611,-60.0788 106.7134,-100.9268 192.449,-100.9268 h 45.9433 c 94.7792,0 114.3137,-49.5614 211.9872,-39.0713 15.1973,1.4485 29.3035,3.9799 42.3303,7.2365 27.1316,-31.1107 57.8809,-44.1367 95.1377,-41.6041 5.7881,0.7243 9.4037,5.7912 8.3218,11.2163 l -9.0429,41.9634 c -3.2559,15.555 1.0859,31.8349 12.2966,42.3251 78.8623,73.7969 124.0823,199.6875 174.7277,313.2784 82.1214,167.4896 280.35896,400.09935 598.34006,101.653 223.5853,-209.8491 358.6625,-384.8115 580.7022,-402.0127 A 1234.7513,1234.7513 0 0 0 988.38914,-215.99155 Z m -524.2711,607.4846 c -32.5687,-10e-5 -65.0558,26.1399 -53.9971,30.825 2.4601,1.0442 6.641,1.7553 11.4377,2.2854 3.4367,20.8301 20.9275,36.9393 42.7416,36.9393 21.8137,0 39.0154,-16.1145 42.3979,-36.9445 4.786,-0.5302 8.9604,-1.2382 11.4167,-2.2802 11.0591,-4.6855 -21.4316,-30.825 -53.9968,-30.825 z M 1617.5491,1578.628 c -26.4011,0.643 -50.1028,17.4175 -58.0161,43.0565 v 0.3617 c -39.4312,126.6139 -116.1234,290.1272 -116.1234,290.1272 0,0 -76.2939,135.144 -119.4836,286.4987 a 1234.7513,1234.7513 0 0 0 136.3929,-48.195 1234.7513,1234.7513 0 0 0 245.3553,-142.9941 c -11.8536,-23.5957 -25.1832,-47.6672 -41.0678,-72.5201 0,0 -25.3218,-112.5058 -73.8008,-235.1385 7.6005,-20.982 14.4742,-41.6024 20.6237,-61.4988 l 0.3593,-1.4473 c 1.4435,-2.8925 4.6991,-3.98 8.3166,-3.98 h 0.3592 c 25.3227,3.9789 52.0933,7.9588 83.2003,11.5757 9.4092,0.7241 19.1761,1.4463 28.943,2.5326 11.9379,1.0841 23.5153,2.1705 35.453,2.8946 2.8616,113.8187 52.2577,222.5926 64.7553,248.5649 a 1234.7513,1234.7513 0 0 0 227.1003,-306.1645 c -87.9274,10.0388 -195.4869,13.4265 -322.0401,0.8069 -10.1291,-1.0865 -20.2561,-2.1704 -30.3851,-2.8945 -27.8547,-3.2569 -53.9028,-6.873 -78.5019,-10.852 -3.8435,-0.5878 -7.6686,-0.8259 -11.4401,-0.734 z" />
  </g>
</svg>
