<?xml version="1.0" encoding="UTF-8"?>
<svg xmlns="http://www.w3.org/2000/svg" xmlns:xlink="http://www.w3.org/1999/xlink" width="300" height="300" viewBox="0 0 300 300">
<path fill-rule="nonzero" fill="rgb(100%, 100%, 100%)" fill-opacity="1" d="M 300 150 C 300 232.84375 232.84375 300 150 300 C 67.15625 300 0 232.84375 0 150 C 0 67.15625 67.15625 0 150 0 C 232.84375 0 300 67.15625 300 150 Z M 300 150 "/>
<path fill-rule="nonzero" fill="rgb(50.196078%, 0%, 50.196078%)" fill-opacity="1" d="M 153.527344 15.441406 C 134.214844 15.105469 115.058594 18.925781 97.355469 26.644531 C 29.140625 56.375 -2.054688 135.777344 27.675781 203.992188 C 52.835938 261.316406 114.160156 293.761719 175.707031 282.304688 C 178.332031 273.941406 180.480469 264.769531 180.480469 254.769531 C 180.480469 253.351562 180.441406 251.929688 180.363281 250.46875 C 180.363281 250.46875 185.179688 242.257812 188.96875 231.558594 C 193.664062 218.335938 191.179688 203.769531 183.046875 192.242188 C 182.574219 191.609375 182.101562 190.902344 181.585938 190.191406 C 133.703125 190.191406 110.019531 146.769531 104.019531 120.359375 C 101.53125 109.503906 99.515625 108.425781 92.734375 108.425781 C 80.195312 108.425781 71.144531 103.226562 71.144531 103.226562 C 59.628906 108.503906 54.472656 106.351562 56.019531 100.84375 C 51.007812 100.292969 51.109375 94.601562 54.164062 89.371094 C 57.988281 82.816406 65.808594 78.359375 75.164062 78.359375 L 80.175781 78.359375 C 90.519531 78.359375 92.648438 72.949219 103.308594 74.097656 C 104.964844 74.253906 106.503906 74.53125 107.925781 74.886719 C 110.886719 71.492188 114.242188 70.070312 118.308594 70.34375 C 118.941406 70.425781 119.335938 70.976562 119.214844 71.570312 L 118.230469 76.148438 C 117.875 77.847656 118.347656 79.621094 119.570312 80.765625 C 128.175781 88.820312 133.113281 102.558594 138.636719 114.953125 C 147.597656 133.226562 169.230469 158.609375 203.929688 126.042969 C 228.328125 103.144531 243.066406 84.054688 267.292969 82.175781 C 243.597656 41.621094 200.492188 16.335938 153.527344 15.441406 M 96.320312 81.730469 C 92.765625 81.730469 89.21875 84.582031 90.425781 85.09375 C 90.695312 85.207031 91.152344 85.285156 91.675781 85.339844 C 92.050781 87.613281 93.957031 89.371094 96.339844 89.371094 C 98.71875 89.371094 100.597656 87.613281 100.964844 85.339844 C 101.488281 85.285156 101.941406 85.207031 102.210938 85.09375 C 103.417969 84.582031 99.871094 81.730469 96.320312 81.730469 M 222.179688 211.269531 C 219.300781 211.339844 216.714844 213.167969 215.851562 215.96875 L 215.851562 216.007812 C 211.546875 229.824219 203.179688 247.664062 203.179688 247.664062 C 203.179688 247.664062 194.855469 262.410156 190.140625 278.929688 C 195.199219 277.46875 200.171875 275.710938 205.023438 273.667969 C 214.519531 269.515625 223.503906 264.277344 231.796875 258.066406 C 230.503906 255.492188 229.050781 252.863281 227.316406 250.152344 C 227.316406 250.152344 224.554688 237.875 219.261719 224.492188 C 220.066406 222.273438 220.816406 220.039062 221.511719 217.78125 L 221.554688 217.625 C 221.710938 217.308594 222.066406 217.191406 222.460938 217.191406 L 222.5 217.191406 C 225.261719 217.625 228.183594 218.058594 231.578125 218.453125 C 232.605469 218.53125 233.671875 218.613281 234.738281 218.730469 C 236.039062 218.847656 237.300781 218.96875 238.605469 219.046875 C 238.917969 231.464844 244.308594 243.335938 245.671875 246.167969 C 255.609375 236.382812 263.972656 225.113281 270.453125 212.761719 C 260.859375 213.855469 249.121094 214.226562 235.3125 212.847656 C 234.207031 212.730469 233.101562 212.613281 231.996094 212.53125 C 228.957031 212.175781 226.113281 211.78125 223.429688 211.347656 C 223.015625 211.285156 222.597656 211.257812 222.179688 211.269531 "/>
</svg>
