<svg xmlns="http://www.w3.org/2000/svg" width="300" height="300">
    <path fill="#FFF" d="M300 150c0 82.844-67.156 150-150 150S0 232.844 0 150 67.156 0 150 0s150 67.156 150 150m0 0"/>
    <path fill="purple" d="M152.781.023a150.2 150.2 0 0 0-62.613 12.485c-76.027 33.14-110.8 121.64-77.66 197.672 28.043 63.89 96.394 100.054 164.992 87.285 2.926-9.32 5.32-19.543 5.32-30.692 0-1.582-.043-3.168-.129-4.793 0 0 5.364-9.152 9.59-21.074 5.235-14.742 2.465-30.976-6.601-43.824-.528-.703-1.055-1.496-1.625-2.289-53.371 0-79.77-48.395-86.457-77.828-2.77-12.098-5.02-13.3-12.575-13.3-13.98 0-24.066-5.798-24.066-5.798-12.836 5.88-18.578 3.485-16.855-2.656-5.59-.613-5.473-6.957-2.07-12.785 4.261-7.309 12.976-12.274 23.406-12.274h5.585c11.528 0 13.903-6.03 25.782-4.754 1.847.176 3.566.485 5.148.88 3.3-3.782 7.04-5.368 11.574-5.06.703.087 1.141.704 1.012 1.364l-1.102 5.105c-.394 1.891.133 3.872 1.497 5.149 9.59 8.973 15.09 24.285 21.25 38.102 9.988 20.37 34.097 48.66 72.773 12.363 27.191-25.524 43.621-46.805 70.625-48.895C253.168 29.203 205.125 1.02 152.782.023M89.015 73.906c-3.961 0-7.91 3.18-6.567 3.75.301.125.809.211 1.39.278.419 2.535 2.548 4.492 5.2 4.492s4.746-1.957 5.156-4.492c.582-.067 1.09-.153 1.39-.278 1.345-.57-2.608-3.75-6.57-3.75M229.302 218.29c-3.211.078-6.094 2.117-7.059 5.238v.043c-4.793 15.399-14.12 35.285-14.12 35.285s-9.282 16.438-14.532 34.844a151 151 0 0 0 16.586-5.86 150.6 150.6 0 0 0 29.844-17.39 97 97 0 0 0-4.997-8.82s-3.078-13.684-8.976-28.602q1.341-3.708 2.508-7.476l.043-.176c.175-.355.574-.484 1.011-.484h.047c3.078.484 6.332.968 10.117 1.406 1.145.09 2.332.176 3.52.308 1.453.133 2.86.262 4.312.352.348 13.844 6.356 27.074 7.875 30.23a150.2 150.2 0 0 0 27.622-37.234c-10.696 1.219-23.778 1.633-39.168.098-1.23-.133-2.461-.266-3.696-.352a222 222 0 0 1-9.547-1.32 8 8 0 0 0-1.39-.09"/>
</svg>
