<svg viewBox="0 0 602 177" xmlns="http://www.w3.org/2000/svg" xml:space="preserve" style="fill-rule:evenodd;clip-rule:evenodd;stroke-linejoin:round;stroke-miterlimit:2"><path d="M517.93 0H83.5S0-1.75 0 87.75s83.5 88.5 83.5 88.5h434.43c1.51 0 83.69-1.41 83.69-88.13C601.63 18.4 539.4 0 517.93 0Z" style="fill:#059;fill-rule:nonzero"/><path d="M594.37 87.25c0 78.69-73.84 80-73.84 80H137.75v-160h382.78c18.93 0 73.84 16.75 73.84 80Z" style="fill:#fff;fill-rule:nonzero"/><path d="M394.59 149.09s-9.37 0-9.37-10.21c0-10.78 9.91-10.31 9.91-10.31s5.47-.37 8.09 3.09v-3.09h9.12v21.9s.5 7.81-13.66 7.81h-10.8V153h10.69s4 .25 4-3.06v-3.56s-1.32 2.71-7.98 2.71Zm-30.3.98v-21.28h8.92V132s2-3.74 5.7-3.74c0 0 3 0 4.59 1.16l-2.84 5.84s-6.78-2.66-6.78 5.19v9.66l-9.59-.04Zm141.9-.02v-5.71h-11.81s-4.84.13-4.84-4.84 3-5.72 4.59-5.72h10.69v-6h-10.57s-14.19-.25-14.19 11S491.93 150 494 150l12.19.05Zm-229.31-.02v-4.55h12s3.62.23 3.62-1.88c0 0 .26-1.4-2.76-1.77l-7.65-1.32s-5.91-1.15-5.91-6 5.57-6 5.57-6a22.598 22.598 0 0 1 5.52-.62h8.5v4.24h-8s-3-.06-3 1.66c0 0-.19 1.58 3.66 1.71 2.452.212 4.889.566 7.3 1.06 2.411.494 4.08 1.15 4.94 3.59a6.86 6.86 0 0 1 0 5c-1.09 2.49-4.47 4.88-12.17 4.88h-11.62Zm-102.82-.09v-29.31h19.25s9.56 0 9.56 9.06-9.69 9.37-9.69 9.37h-8.43V150l-10.69-.06Zm284.69.06v-4.9h-11.57c-2.449.194-4.625-1.661-4.82-4.11v-.11h18.9s2.09-13.36-14.5-13.13c0 0-14.12-.47-14.12 11.2s13.58 11 13.58 11l12.53.05Zm-251.08-.06v-21.27h8.92v3.17s1.95-3.74 5.7-3.74c0 0 3 0 4.59 1.16L224 135.1s-6.78-2.66-6.78 5.19V150l-9.55-.06Zm149.8.06v-4.92h-11.26s-4.09.42-4.72-4.25h18.45s2-13.47-14.15-13.24c0 0-13.79-.47-13.79 11.3 0 11.77 13.26 11.06 13.26 11.06l12.21.05Zm61.09-29.43h9.62v29.37h-9.62v-29.37Zm93.19 29.37v-29.31h9.39v10.54s2.63-3.12 8.17-3.12c0 0 8.21-.36 8.3 6.86v15h-9.45v-12.25l.001-.091a3.083 3.083 0 0 0-3.001-3.069h-.23s-3.69-.42-3.83 4.6v10.84h-9.35Zm-45.87-21.23h9.63v21.19h-9.63v-21.19Zm-205 0h9.63v21.19h-9.63v-21.19Zm41.27-.16 10.5 21.35H321l10.59-21.43H322l-5.06 13.18-4.75-13.12-10.04.02Zm-48.3 21.24v-4.88h-11.27s-4.09.42-4.72-4.22h18.45s2-13.36-14.15-13.13c0 0-13.78-.47-13.78 11.2s13.26 11 13.26 11l12.21.03Zm144.788-6.294c-2.267-.046-4.108-1.925-4.108-4.196v-.22s-.53-4.75 4-4.75 4.08 4.83 4.08 4.83.299 4.321-3.972 4.336l.032.004h-.06l.028-.004Zm43.602-6.636c.154-2.523 2.357-4.473 4.88-4.32a4.358 4.358 0 0 1 4.66 4v.31l-9.54.01Zm-100.86-.11c.123-2.5 2.269-4.461 4.77-4.36 2.369-.124 4.422 1.721 4.55 4.09v.26l-9.32.01Zm-103.63-.08c.128-2.491 2.278-4.438 4.77-4.32 2.342-.142 4.391 1.659 4.55 4v.28l-9.32.04Zm-53.12-3.57v-6.22h3.22s4.69-.22 4.69 3-4.66 3.22-4.66 3.22h-3.25Zm76.25-12.39h9.63v5.42h-9.63v-5.42Zm205 0h9.63v5.42h-9.63v-5.42ZM425.5 106.63s-22 2.25-22-16c0 0-.21-11.63 10.5-14.54 10.71-2.91 26-5.33 31.46-8.29 0 0 1.08-7.83-7.5-6.92 0 0-10.08-1.12-11.42 6.75l-21.17-2.37s.13-17.26 26.42-17.54h10.08s25.08-2 25.46 21.38v37.54h-20.7v-7.58s-5 7.36-21.13 7.57Zm96.08 0V94.42h28.33s8.58.62 8.58-5c0 0 .63-3.75-6.54-4.75l-18.12-3.55s-14-3.08-14-16.12c0-13.04 13.17-16.16 13.17-16.16a47.587 47.587 0 0 1 13.08-1.67h20.13v11.58h-19s-7.21-.17-7.21 4.46c0 0-.46 4.25 8.67 4.58 0 0 13.21 1.42 17.29 2.83 0 0 9.67 3.08 11.71 9.63a20.67 20.67 0 0 1-.13 13.29c-2.58 6.67-10.58 13.08-28.83 13.08l-27.13.01ZM228 49h22.13v57.63H228V49Zm255.25-21.58h22.33v79.21h-22.33V27.42Zm-274.12 79.21v-13h-26.88S172.5 94.76 171 82.38h44s4.88-35.63-33.75-35c0 0-32.87-1.25-32.87 29.88S180 106.51 180 106.51l29.13.12Zm121 0V27.46h22.19V56s6.23-8.42 19.31-8.42c0 0 19.42-1 19.63 18.54v40.46h-22.34V73.46s.13-8.54-7.58-8.54c0 0-8.71-1.13-9 12.42v29.29h-22.21ZM263.88 64V49h53.56v12.63l-29.13 29.12h31v15.87h-57.75V91.56L289.06 64h-25.18Zm181.79 14.84v6s-.25 10.08-12.37 10.08c0 0-7 .88-7.25-5.58 0 0-1.17-5 9.79-7.65l9.83-2.85Zm-274.92-7.2s.5-11.47 11.38-11.47S193 71.67 193 71.67l-22.25-.03ZM228 27.38h22.13v14.75H228V27.38Z" style="fill:#059"/><path d="M105.75 49V24.25H68.1S16.9 22.74 16.9 86s47.69 63.25 56 63.25h48.85v-71h-50v23h25v23h-26s-11.29-.29-17.26-8.47c0 0-5.74-6.73-5.74-21.43S48 75.41 48 75.41s-1.87-22.3 21.5-26.16l36.25-.25Z" style="fill:#fff;fill-rule:nonzero"/></svg>