<?xml version="1.0" encoding="UTF-8"?>
<svg id="Layer_1" data-name="Layer 1" xmlns="http://www.w3.org/2000/svg" width="90" height="90" viewBox="0 0 90 90">
<defs>
<style>
.cls-1 {
fill: style="color: #183a58";
      stroke-width: 0px;
}
</style>
</defs>
<path fill="#183a58" class="cls-1" d="M83.83002,59.93945c.20001.69.08997,1.42004-.28003,2.04004-2.20996,3.69-3.06,12.22998-3.06,12.22998v2.09998c0,.54004-.46997.97003-1.04999.97003h-5.10999c-.70001,0-1.14001-.72003-.75-1.25.88-1.16998,2.70001-1.82001,2.70001-1.82001,0,0,2.10999-4.40997,2.10999-10.81,0-3.14001-1.28003-4.95001-2.69-7.07001-.16003-3.32001.33002-7.70001,2.83997-11.21002.12-.15997.24005-.31995.34003-.47998.25,7.65002,4.22998,12.90002,4.95001,15.29999ZM51.37,60.64948s-1.83997-3.59003-1.92999-7.16998c-.33002-.02002-.65002-.05005-.97998-.08002-.27002-.03003-.54004-.04999-.80005-.07001-.85999-.09998-1.59998-.21002-2.29999-.32001h-.01001c-.09998,0-.19.03003-.22998.10999l-.01001.04004c-.16998.54999-.35999,1.12-.57001,1.70001,1.34003,3.38995,2.04004,6.5,2.04004,6.5,2.08997,3.26996,2.85999,6.13995,2.85999,8.66998,0,1.5-.27002,2.89996-.70001,4.17999,0,0-1.82001.65002-2.70001,1.81-.38995.53998.05005,1.26001.75,1.26001h5.62c.59003,0,1.06-.44,1.06-.97003l-.18994-2.07001c-.38-5.68994-1.91003-13.58997-1.91003-13.58997ZM85.87451,48.75525c0,2.42834-.00562,2.81665-.00562,2.81665-4.71338-1.44141-2.65723-4.51007-3.27899-6.76648-.04309-.12213-.08472-.23846-.12897-.3645-.66846-1.90344-1.55054-4.40955-3.16205-7.12177.25256,2.38593-.37762,4.81134-1.95886,6.90039-4.17004,5.82001-3.32001,13.76996-2.47003,16.72998.21002.70001.12,1.45001-.26001,2.09003-2.29999,3.83997-2.16998,2.63995-5.66998,11.25v2.09991c0,.53003-.46002.97003-1.03998.97003h-5.13c-.66003,0-1.09003-.76001-.69-1.29004.88-1.12994,2.65997-1.77991,2.65997-1.77991,0,0,4.20001-5.39001,4.20001-11.78003,0-5.41998-3.81-12.52997-3.81-12.52997,0,0-5.89001,2.98999-16.52002,1.92999-.27997-.03003-.56-.06-.83997-.08002-.77002-.09003-1.48999-.19-2.17004-.29999-.84998-.13-1.66998.35999-1.91998,1.16998v.01001c-1.08997,3.5-3.21002,8.02002-3.21002,8.02002,0,0-4.45996,7.89996-4.07996,13.58997l.19,2.06995c0,.53003-.47003.97003-1.06.97003h-5.61005c-.69,0-1.12994-.72003-.73999-1.26001.87-1.15997,2.69-1.80994,2.69-1.80994,1.07001-3.21002,2.85999-7.15002,2.85999-11.76001,0-.35999-.00995-.72003-.02997-1.09003,0,0,1.21997-2.07996,2.17999-4.78998,1.19-3.34998.56-7.03998-1.5-9.96002-.12-.15997-.23999-.33997-.37-.51996-12.13,0-18.13-11-19.65002-17.69-.63-2.75-1.14124-3.02332-2.85846-3.02332-3.17676,0-5.46991-1.31714-5.46991-1.31714-2.91669,1.33649-4.22266.79193-3.83118-.60333-1.2699-.13995-1.24359-1.58142-.4704-2.90625.96924-1.66077,2.94995-2.78998,5.31995-2.78998h1.27002c2.62,0,3.15997-1.37,5.85999-1.08002.42004.04004.81.10999,1.17004.20001.75-.85999,1.59998-1.22003,2.62994-1.15002.16003.02002.26001.16003.23004.31l-.25,1.16003c-.09003.42999.02997.88.33997,1.16998,2.17999,2.03998,3.42999,5.52002,4.83002,8.66003,2.27002,4.62994,7.75,11.06,16.53998,2.81,6.51001-6.11005,10.30005-11.16003,17.05005-11.16003,5.98999,0,9.07996,3.72998,17.79999,11.51001.32214.28729.6181.58777.90063.89453l.03955-.03809c4.60449,4.78662,6.30273,9.61963,7.42578,12.81787.09161.26062.17999.51141.26654.75293.77789,1.45825,1.73199,1.9491,1.73199,4.05847ZM13.39502,18.69312c-.90033,0-1.79834.7226-1.49268.85211.06805.02887.18359.04852.31622.06317.09521.57581.57849,1.02112,1.18146,1.02112s1.07849-.44543,1.172-1.02124c.13232-.01465.24768-.03424.31561-.06305.30566-.12952-.59235-.85211-1.49261-.85211Z"/>
</svg>
