<svg id="Layer_1" data-name="Layer 1" xmlns="http://www.w3.org/2000/svg" viewBox="0 0 500 100"><defs><style>.cls-1{fill:#ffd64d;}</style></defs><path class="cls-1" d="M429.45,60.57a27.85,27.85,0,0,1,1.07-6.91l4-14a37.07,37.07,0,0,0,1.66-7.8A2.24,2.24,0,0,0,435,29.56a11.89,11.89,0,0,0-4.38-.54,8.22,8.22,0,0,1,.58-3.7,29.9,29.9,0,0,0,5.8-1.56,28.15,28.15,0,0,0,5.4-2.43,5.67,5.67,0,0,1,2.87,2.29,7.41,7.41,0,0,1,.93,3.94,27.78,27.78,0,0,1-1.17,7l-5.36,18.8A24.87,24.87,0,0,0,438.5,59a2.08,2.08,0,0,0,.39,1.46,1.76,1.76,0,0,0,1.27.39q2.23,0,5.06-2.83A4.21,4.21,0,0,1,447,61.16q-6,6.53-11.11,6.52C431.59,67.68,429.45,65.32,429.45,60.57Z"/><path class="cls-1" d="M441.23,12.07a4,4,0,0,1-1.17-3,7.64,7.64,0,0,1,.2-1.4,7.57,7.57,0,0,1,2.34-4.16,5.88,5.88,0,0,1,4-1.54A4.48,4.48,0,0,1,449.8,3.1a4,4,0,0,1,1.17,3,7.11,7.11,0,0,1-1.9,5.09,6.22,6.22,0,0,1-4.72,2A4.35,4.35,0,0,1,441.23,12.07Z"/><path d="M51.76,67.16H43.57V48.32H13.29V67.16H5.2v-63h8.09V40.33H43.57V4.12h8.19Z"/><path d="M78.69,21.19a23,23,0,1,1-23,23A22.94,22.94,0,0,1,78.69,21.19Zm0,38a15,15,0,1,0-15-15A15,15,0,0,0,78.69,59.17Z"/><path d="M105.62,67.16v-63h8.28v63Z"/><path d="M138.86,21.19a23,23,0,1,1-23,23A22.94,22.94,0,0,1,138.86,21.19Zm0,38a15,15,0,1,0-15-15A15,15,0,0,0,138.86,59.17Z"/><path d="M189.07,67.16A19.69,19.69,0,0,1,174,60.45V92.31h-8.18V44.17a23.28,23.28,0,1,1,23.28,23Zm0-38a15,15,0,0,0-15.1,15,15.1,15.1,0,1,0,30.19,0A15,15,0,0,0,189.07,29.18Z"/><path d="M262.75,67.16h-8v-23a15.14,15.14,0,0,0-30.28,0v23h-8.19v-63h8.19V27.9a19.68,19.68,0,0,1,15.09-6.71,22.92,22.92,0,0,1,23.18,23Z"/><path d="M290,29.08c-9,0-15.09,7.3-15.09,15.39V67.16h-8.19V44.47A23,23,0,0,1,290,21.19Z"/><path d="M340.18,67.16H307.53a13.35,13.35,0,0,1-13.71-13.32,13.6,13.6,0,0,1,13.71-13.61l4.74.1v8h-4.74a5.48,5.48,0,1,0,0,11h20.91a9.19,9.19,0,0,1-1.87-5.63V43.78c0-8.58-7-14.6-15.19-14.6H293.82v-8h17.56c12.92,0,23.28,9.76,23.28,22.59v9.86a5.61,5.61,0,0,0,5.52,5.63Z"/><path d="M371.55,67.16h-7.1v-7.8h7.1c8.19,0,14.8-7,14.8-15.29,0-9.66-6.91-15-14.8-15a5.9,5.9,0,0,0-5.33,3.55l-12,26.73a12.71,12.71,0,0,1-11.64,7.8h-2.66V59.27h2.26a5.26,5.26,0,0,0,4.94-3.36l12-26.43c2.27-4.84,6.91-8.29,12.23-8.29a23,23,0,0,1,.2,46Z"/><path d="M421.46,67.06a23,23,0,0,1-23.28-23.28V4.12h8.19V21.19h15.09v8H406.37v14.6c0,8.09,6.11,15.39,15.09,15.39Z"/><path d="M495.2,55.71a23.4,23.4,0,0,1-20.12,11.45,23,23,0,1,1,0-46A23.42,23.42,0,0,1,495.2,32.63H484.65a15.34,15.34,0,0,0-9.57-3.45,15,15,0,1,0,0,30.09,15.37,15.37,0,0,0,9.57-3.56Z"/></svg>