<?xml version="1.0" encoding="UTF-8" standalone="no"?>
<!DOCTYPE svg PUBLIC "-//W3C//DTD SVG 1.1//EN"
 "http://www.w3.org/Graphics/SVG/1.1/DTD/svg11.dtd">
<!-- Generated by graphviz version 2.26.3 (20100126.1600)
 -->
<!-- Title: Perl Pages: 1 -->
<svg width="234pt" height="45pt"
 viewBox="0.00 0.00 234.00 45.00" xmlns="http://www.w3.org/2000/svg" xmlns:xlink="http://www.w3.org/1999/xlink">
<g id="graph1" class="graph" transform="scale(1 1) rotate(0) translate(4 41)">
<title>Perl</title>
<polygon fill="white" stroke="white" points="-4,5 -4,-41 231,-41 231,5 -4,5"/>
<!-- Teamwork -->
<g id="node1" class="node"><title>Teamwork</title>
<polygon fill="yellow" stroke="black" points="68,-36 3.55271e-14,-36 0,-1.77636e-14 68,-3.55271e-15 68,-36"/>
<text text-anchor="middle" x="34" y="-15.2" font-family="Times Roman,serif" font-size="12.00">Teamwork</text>
</g>
<!-- Victory -->
<g id="node2" class="node"><title>Victory</title>
<polygon fill="red" stroke="black" points="226,-36 172,-36 172,-1.77636e-14 226,-3.55271e-15 226,-36"/>
<text text-anchor="middle" x="199" y="-15.2" font-family="Times Roman,serif" font-size="12.00">Victory</text>
</g>
<!-- Teamwork&#45;&gt;Victory -->
<g id="edge2" class="edge"><title>Teamwork&#45;&gt;Victory</title>
<path fill="none" stroke="grey" d="M68.1881,-18C95.4745,-18 133.648,-18 161.716,-18"/>
<polygon fill="grey" stroke="grey" points="161.936,-21.5001 171.935,-18 161.935,-14.5001 161.936,-21.5001"/>
<text text-anchor="middle" x="120" y="-24.4" font-family="Times Roman,serif" font-size="14.00">is the key to</text>
</g>
</g>
</svg>
